<mxfile host="app.diagrams.net" modified="2023-03-31T03:26:29.550Z" agent="Mozilla/5.0 (Windows NT 10.0; Win64; x64) AppleWebKit/537.36 (KHTML, like Gecko) Chrome/111.0.0.0 Safari/537.36" version="21.1.2" etag="-xZCEf8igf6XcHVz4Cqk" type="github">
  <diagram name="第 1 页" id="79Gn1fX1WY6bUH9xiuAL">
    <mxGraphModel>
      <root>
        <mxCell id="0" />
        <mxCell id="1" parent="0" />
      </root>
    </mxGraphModel>
  </diagram>
</mxfile>
